# xmcd
#
# Track frame offsets:
#	150
#	15250
#	29227
#	41897
#	61946
#	82487
#	97860
#	113529
#	125524
#	145126
#	159559
#	176694
#	191965
#
# Disc length: 2787 seconds
#
# Revision: 0
# Processed by: cddbd v1.5.2PL0 Copyright (c) Steve Scherf et al.
# Submitted via: dBpowerAMP V4.0
#
DISCID=b40ae10d
DTITLE=Ernie Dawson and Heirline - Words
DYEAR=2006
DGENRE=Gospel
TTITLE0=Don't Weep For Me
TTITLE1=Words
TTITLE2=It's Done
TTITLE3=My Song Of Praise
TTITLE4=Living Water
TTITLE5=Tiny Angels
TTITLE6=Grace For Grace
TTITLE7=Pass Me Not
TTITLE8=A Place Above The Shadows
TTITLE9=I Wonder What It's Like
TTITLE10=A Crown Of Thorns
TTITLE11=Sometimes It Takes A Mountain
TTITLE12=I'm Going Up
EXTD=
EXTT0=
EXTT1=
EXTT2=
EXTT3=
EXTT4=
EXTT5=
EXTT6=
EXTT7=
EXTT8=
EXTT9=
EXTT10=
EXTT11=
EXTT12=
PLAYORDER=
